<svg aria-hidden="true" style="position: absolute; width: 0; height: 0; overflow: hidden;" version="1.1" xmlns="http://www.w3.org/2000/svg" xmlns:xlink="http://www.w3.org/1999/xlink">
 <defs>
 
       
        <symbol id="icon-twitter" viewBox="0 0 22 22">
            <path stroke-linejoin="round" stroke-linecap="round" stroke-miterlimit="4" stroke-width="1.65" d="M21.12 2.75c-0.819 0.598-1.769 1.085-2.79 1.411l-0.070 0.019c-0.752-0.948-1.904-1.551-3.197-1.551-2.248 0-4.070 1.822-4.070 4.070 0 0.081 0.002 0.162 0.007 0.242l-0.001-0.011v0.77c-1.65 0-3.3-0.33-4.62-1.1-1.43-0.44-2.75-1.87-3.63-3.3 0 0-3.63 8.58 4.62 12.32-1.658 1.113-3.699 1.777-5.895 1.777-0.209 0-0.417-0.006-0.623-0.018l0.029 0.001c8.25 4.62 18.37 0 18.37-10.45v-0.77c0.88-0.99 1.54-2.2 1.87-3.41z"></path>
        </symbol>
        <symbol id="icon-instagram" viewBox="0 0 22 22">
            <path stroke-linejoin="round" stroke-linecap="round" stroke-miterlimit="4" stroke-width="1.8333" d="M15.583 1.833h-9.167c-2.531 0-4.583 2.052-4.583 4.583v0 9.167c0 2.531 2.052 4.583 4.583 4.583v0h9.167c2.531 0 4.583-2.052 4.583-4.583v0-9.167c0-2.531-2.052-4.583-4.583-4.583v0z"></path>
            <path stroke-linejoin="round" stroke-linecap="round" stroke-miterlimit="4" stroke-width="1.8333" d="M14.667 10.45c0.022 0.151 0.035 0.326 0.035 0.504 0 2.044-1.657 3.701-3.701 3.701-1.866 0-3.41-1.381-3.664-3.177l-0.002-0.020c-0.022-0.151-0.035-0.326-0.035-0.504 0-2.044 1.657-3.701 3.701-3.701 1.866 0 3.41 1.381 3.664 3.177l0.002 0.020z"></path>
            <path stroke-linejoin="round" stroke-linecap="round" stroke-miterlimit="4" stroke-width="1.8333" d="M14.667 10.45c0.022 0.151 0.035 0.326 0.035 0.504 0 2.044-1.657 3.701-3.701 3.701-1.866 0-3.41-1.381-3.664-3.177l-0.002-0.020c-0.022-0.151-0.035-0.326-0.035-0.504 0-2.044 1.657-3.701 3.701-3.701 1.866 0 3.41 1.381 3.664 3.177l0.002 0.020zM16.042 5.958v0M16.042 5.958v0"></path>
        </symbol>
   

</defs>
</svg>
